<svg width="200" height="200" viewBox="0 0 200 200" xmlns="http://www.w3.org/2000/svg">
  <!-- YChart Logo - Org Chart Style -->
  <defs>
    <linearGradient id="cardGrad" x1="0%" y1="0%" x2="0%" y2="100%">
      <stop offset="0%" style="stop-color:#ffffff;stop-opacity:1" />
      <stop offset="100%" style="stop-color:#f0f4f8;stop-opacity:1" />
    </linearGradient>
    <filter id="shadow" x="-20%" y="-20%" width="140%" height="140%">
      <feDropShadow dx="0" dy="2" stdDeviation="3" flood-color="#000" flood-opacity="0.15"/>
    </filter>
  </defs>
  
  <!-- Background circle -->
  <circle cx="100" cy="100" r="95" fill="#25c281" />
  
  <!-- Top card (root node) -->
  <g filter="url(#shadow)">
    <rect x="65" y="25" width="70" height="40" rx="6" fill="url(#cardGrad)" stroke="#e2e8f0" stroke-width="1"/>
    <rect x="65" y="25" width="70" height="8" rx="6" fill="#4a90d9"/>
    <rect x="65" y="25" width="70" height="8" fill="#4a90d9"/>
    <rect x="65" y="33" width="70" height="2" fill="#4a90d9"/>
    <circle cx="100" cy="50" r="8" fill="#e2e8f0"/>
    <rect x="80" y="56" width="40" height="3" rx="1.5" fill="#cbd5e1"/>
  </g>
  
  <!-- Connector lines -->
  <path d="M100 65 L100 85 M100 85 L50 85 L50 100 M100 85 L150 85 L150 100" 
        stroke="#94a3b8" stroke-width="2" fill="none" stroke-linecap="round"/>
  
  <!-- Left card -->
  <g filter="url(#shadow)">
    <rect x="15" y="100" width="70" height="40" rx="6" fill="url(#cardGrad)" stroke="#e2e8f0" stroke-width="1"/>
    <rect x="15" y="100" width="70" height="8" rx="6" fill="#25c281"/>
    <rect x="15" y="100" width="70" height="8" fill="#25c281"/>
    <rect x="15" y="108" width="70" height="2" fill="#25c281"/>
    <circle cx="50" cy="125" r="8" fill="#e2e8f0"/>
    <rect x="30" y="131" width="40" height="3" rx="1.5" fill="#cbd5e1"/>
  </g>
  
  <!-- Right card -->
  <g filter="url(#shadow)">
    <rect x="115" y="100" width="70" height="40" rx="6" fill="url(#cardGrad)" stroke="#e2e8f0" stroke-width="1"/>
    <rect x="115" y="100" width="70" height="8" rx="6" fill="#f59e0b"/>
    <rect x="115" y="100" width="70" height="8" fill="#f59e0b"/>
    <rect x="115" y="108" width="70" height="2" fill="#f59e0b"/>
    <circle cx="150" cy="125" r="8" fill="#e2e8f0"/>
    <rect x="130" y="131" width="40" height="3" rx="1.5" fill="#cbd5e1"/>
  </g>
  
  <!-- Bottom connector from left card -->
  <path d="M50 140 L50 155 L80 155 L80 165" 
        stroke="#94a3b8" stroke-width="2" fill="none" stroke-linecap="round"/>
  
  <!-- Bottom card -->
  <g filter="url(#shadow)">
    <rect x="45" y="165" width="70" height="30" rx="5" fill="url(#cardGrad)" stroke="#e2e8f0" stroke-width="1"/>
    <rect x="45" y="165" width="70" height="6" rx="5" fill="#8b5cf6"/>
    <rect x="45" y="165" width="70" height="6" fill="#8b5cf6"/>
    <rect x="45" y="171" width="70" height="2" fill="#8b5cf6"/>
    <circle cx="80" cy="182" r="6" fill="#e2e8f0"/>
    <rect x="64" y="186" width="32" height="2" rx="1" fill="#cbd5e1"/>
  </g>
</svg>